<svg id="Layer_1" data-name="Layer 1" xmlns="http://www.w3.org/2000/svg" viewBox="0 0 21.48 24.86"><defs><style>.cls-1{fill:#fc0;}.cls-2,.cls-3{fill:none;}.cls-2{stroke:#000;stroke-linecap:round;stroke-linejoin:bevel;}</style></defs><rect class="cls-1" x="1" y="5" width="19.91" height="16.93" rx="1.9"/><circle cx="7.29" cy="11.86" r="1.15"/><circle cx="14.07" cy="11.86" r="1.15"/><rect class="cls-1" x="5.4" y="0.71" width="10.69" height="3.8" rx="1.9"/><rect class="cls-1" x="4.25" y="21.93" width="12.83" height="2.14"/><path class="cls-2" d="M15.89,16.09c0,.76-1.52,1.38-3.39,1.38s-3.39-.62-3.39-1.38" transform="translate(-1.76 0)"/><path class="cls-3" d="M17.17,5V6.59a.47.47,0,0,1-.47.47H8.19a.47.47,0,0,1-.48-.47V5Z" transform="translate(-1.76 0)"/><path class="cls-3" d="M22.24,8V18.6a3,3,0,0,1-3,3h0V18.27a1.5,1.5,0,0,0-1.5-1.49H7.2a1.49,1.49,0,0,0-1.49,1.49V21.6a3,3,0,0,1-2.95-3V8a3,3,0,0,1,3-3h.93V6.59a1.5,1.5,0,0,0,1.5,1.49H16.7a1.49,1.49,0,0,0,1.49-1.49V5h1A3,3,0,0,1,22.24,8Z" transform="translate(-1.76 0)"/><path class="cls-3" d="M18.1,18.27V21.6H6.81V18.27a.4.4,0,0,1,.39-.39H17.71A.39.39,0,0,1,18.1,18.27Z" transform="translate(-1.76 0)"/><path class="cls-3" d="M18.1,22.6v.76a.38.38,0,0,1-.39.39H7.2a.39.39,0,0,1-.39-.39V22.6Z" transform="translate(-1.76 0)"/><path class="cls-3" d="M17.17,1.5V4H7.71V1.5A.47.47,0,0,1,8.19,1H16.7A.47.47,0,0,1,17.17,1.5Z" transform="translate(-1.76 0)"/><path d="M19.24,4h-1V1.5A1.5,1.5,0,0,0,16.7,0H8.19a1.5,1.5,0,0,0-1.5,1.5V4H5.76a4,4,0,0,0-4,4V18.6a4,4,0,0,0,4,4v.76a1.5,1.5,0,0,0,1.49,1.5H17.71a1.5,1.5,0,0,0,1.5-1.5V22.6h0a4,4,0,0,0,4-4V8A4,4,0,0,0,19.24,4ZM7.71,1.5A.47.47,0,0,1,8.19,1H16.7a.47.47,0,0,1,.47.48V4H7.71ZM18.1,23.36a.38.38,0,0,1-.39.39H7.2a.39.39,0,0,1-.39-.39V22.6H18.1Zm4.14-4.76a3,3,0,0,1-3,3H5.71a3,3,0,0,1-2.95-3V8a3,3,0,0,1,3-3H19.24a3,3,0,0,1,3,3Z" transform="translate(-1.76 0)"/></svg>